<svg xmlns="http://www.w3.org/2000/svg" xmlns:xlink="http://www.w3.org/1999/xlink" width="500" zoomAndPan="magnify" viewBox="0 0 375 374.999991" height="500" preserveAspectRatio="xMidYMid meet" version="1.0"><defs><g/><clipPath id="d0334762f0"><path d="M 61.542969 54.582031 L 313.457031 54.582031 L 313.457031 306.5 L 61.542969 306.5 Z M 61.542969 54.582031 " clip-rule="nonzero"/></clipPath><clipPath id="d09aaccc74"><path d="M 187.5 54.582031 C 117.933594 54.582031 61.542969 110.976562 61.542969 180.542969 C 61.542969 250.105469 117.933594 306.5 187.5 306.5 C 257.066406 306.5 313.457031 250.105469 313.457031 180.542969 C 313.457031 110.976562 257.066406 54.582031 187.5 54.582031 " clip-rule="nonzero"/></clipPath><clipPath id="94dcd38685"><path d="M 115.746094 81.859375 L 260.484375 81.859375 L 260.484375 239.148438 L 115.746094 239.148438 Z M 115.746094 81.859375 " clip-rule="nonzero"/></clipPath></defs><g clip-path="url(#d0334762f0)"><g clip-path="url(#d09aaccc74)"><path fill="#000000" d="M 61.542969 54.582031 L 313.457031 54.582031 L 313.457031 306.5 L 61.542969 306.5 Z M 61.542969 54.582031 " fill-opacity="1" fill-rule="nonzero"/></g></g><g clip-path="url(#94dcd38685)"><path fill="#e0d9c8" d="M 221.972656 206.394531 C 220.847656 204.453125 220.152344 202.285156 219.457031 200.125 C 225.542969 200.539062 231.679688 199.507812 237.175781 197.066406 C 228.164062 200.40625 217.96875 199.953125 209.433594 196.136719 C 211.589844 195.105469 213.246094 193.183594 214.714844 191.867188 C 216.84375 190.082031 219.292969 188.625 221.796875 187.320312 C 226.828125 184.792969 232.238281 182.648438 237.953125 182.316406 C 232.214844 182.355469 226.644531 184.230469 221.414062 186.535156 C 220.179688 187.101562 218.957031 187.703125 217.761719 188.367188 C 219.160156 183.488281 221.28125 178.667969 225.125 175.175781 C 220.886719 178.648438 218.425781 183.800781 216.761719 188.9375 C 215.78125 189.519531 214.824219 190.148438 213.898438 190.84375 C 213.0625 191.527344 212.308594 192.21875 211.558594 192.835938 C 211.4375 192.71875 211.316406 192.609375 211.199219 192.496094 C 210.792969 192.132812 210.414062 191.804688 210.042969 191.457031 C 209.691406 191.117188 209.363281 190.757812 209.070312 190.375 C 211.382812 188.65625 212.515625 186.058594 213.652344 183.683594 C 212.210938 185.910156 210.753906 188.242188 208.503906 189.488281 C 208.433594 189.359375 208.359375 189.226562 208.296875 189.089844 C 207.460938 187.28125 207.628906 185.09375 208.183594 183.085938 C 207.386719 184.996094 206.871094 187.207031 207.53125 189.378906 C 207.851562 190.445312 208.453125 191.425781 209.136719 192.28125 C 209.480469 192.699219 209.847656 193.109375 210.175781 193.492188 C 210.242188 193.574219 210.3125 193.65625 210.378906 193.738281 C 209.421875 194.394531 208.417969 194.882812 207.21875 195.042969 C 207.101562 194.980469 206.984375 194.917969 206.867188 194.851562 C 198.375 190.417969 192.878906 181.574219 192.921875 172.421875 C 193.769531 172.585938 194.628906 172.777344 195.496094 172.984375 C 202.96875 174.964844 211.910156 175.011719 219.289062 172.070312 C 222.601562 170.847656 225.660156 169.207031 228.515625 167.300781 C 231.101562 169.773438 234.292969 171.859375 237.914062 172.363281 C 241.710938 172.921875 245.429688 171.652344 248.527344 169.769531 C 245.28125 171.410156 241.550781 172.316406 238.070312 171.503906 C 234.84375 170.789062 232.132812 168.742188 229.929688 166.324219 C 233.0625 164.09375 235.953125 161.5625 238.671875 158.960938 C 238.785156 158.851562 238.898438 158.738281 239.011719 158.628906 C 241.625 159.359375 244.476562 159.492188 247.046875 158.601562 C 249.847656 157.664062 252.320312 156.109375 254.90625 154.808594 C 252.261719 155.980469 249.691406 157.414062 246.925781 158.183594 C 244.535156 158.875 242.039062 158.679688 239.695312 157.96875 C 244.890625 152.929688 249.714844 147.597656 254.71875 142.425781 C 248.226562 148.023438 241.960938 154.378906 235.144531 159.609375 C 235.292969 159.273438 235.421875 158.917969 235.511719 158.527344 C 236.128906 155.722656 234.425781 153.460938 234.355469 151.222656 C 234.15625 146.5625 235.253906 141.492188 238.429688 137.792969 C 235.023438 141.320312 233.566406 146.359375 233.484375 151.273438 C 233.507812 153.871094 234.925781 156.132812 234.238281 158.226562 C 233.976562 159.179688 233.195312 160.15625 232.5 161.082031 C 232.207031 161.464844 231.890625 161.835938 231.574219 162.203125 C 227.414062 165.042969 223.015625 167.375 218.21875 168.8125 C 215.910156 169.492188 213.539062 169.898438 211.152344 170.058594 C 210.621094 165.433594 213.105469 160.085938 216.117188 155.773438 C 219.652344 150.847656 224.140625 146.316406 229.761719 143.585938 C 223.851562 145.703125 218.757812 149.800781 214.527344 154.527344 C 214.175781 154.957031 213.820312 155.394531 213.464844 155.839844 C 211.261719 152.746094 209.550781 149.183594 208.582031 145.441406 C 216.308594 140.484375 219.566406 131.464844 223.25 123.632812 C 219.34375 131.273438 215.917969 139.890625 208.371094 144.574219 C 207.332031 139.976562 207.421875 135.140625 209.101562 130.582031 C 205.332031 139.140625 207.304688 149.390625 212.390625 157.238281 C 209.707031 160.871094 207.417969 165.097656 207.394531 170.113281 C 204.789062 170.113281 202.175781 169.507812 199.480469 168.769531 C 200.714844 166.902344 201.835938 164.789062 201.980469 162.417969 C 202.238281 159.007812 200.996094 155.972656 199.628906 153.207031 C 200.480469 156.171875 201.035156 159.351562 200.261719 162.121094 C 199.660156 164.425781 198.078125 166.101562 196.265625 167.863281 C 192.714844 166.867188 188.972656 165.738281 184.660156 165.738281 C 184.5 165.734375 184.335938 165.738281 184.175781 165.738281 C 184.402344 165.375 184.632812 165.007812 184.863281 164.640625 C 188.660156 158.566406 192.566406 152.0625 194.652344 144.699219 C 196.382812 138.679688 196.023438 132.1875 193.941406 126.457031 C 197.222656 125.433594 200.074219 123.574219 202.480469 121.335938 C 204.96875 121.542969 207.585938 121.78125 210.191406 121.753906 C 212.777344 121.601562 214.988281 120.503906 216.929688 119.097656 C 220.128906 122.464844 225.308594 122.15625 229.230469 120.960938 C 229.636719 120.847656 230.042969 120.714844 230.445312 120.585938 C 234.453125 124.25 240.117188 123.121094 244.78125 122.289062 C 240.15625 122.960938 234.652344 123.773438 231.019531 120.398438 C 234.65625 119.152344 238.070312 117.371094 241.523438 115.738281 C 237.449219 117.507812 233.421875 119.476562 229.117188 120.542969 C 225.195312 121.59375 220.378906 121.640625 217.613281 118.582031 C 217.871094 118.378906 218.125 118.171875 218.375 117.960938 C 222.851562 114.058594 225.894531 108.757812 231.289062 106.125 C 227.140625 107.894531 224.167969 111.308594 221.035156 114.398438 C 221.164062 111.484375 220.128906 108.761719 220.980469 105.980469 C 221.703125 102.976562 223.050781 99.96875 225.5 97.949219 C 222.988281 99.898438 221.539062 102.890625 220.722656 105.917969 C 219.71875 108.90625 220.878906 112.082031 220.472656 114.949219 C 219.613281 115.773438 218.742188 116.570312 217.824219 117.289062 C 215.601562 119.027344 212.855469 120.449219 210.1875 120.445312 C 208.121094 120.367188 206.082031 120.113281 203.976562 119.835938 C 204.824219 118.925781 205.609375 117.972656 206.324219 117.003906 C 209.820312 112.300781 212.226562 107.070312 214.429688 101.824219 C 211.933594 106.242188 209.257812 110.601562 205.988281 114.363281 C 204.992188 113.949219 204.554688 111.769531 204.382812 110.300781 C 204.210938 108.902344 204.15625 107.480469 204.15625 106.054688 C 206.109375 105.03125 208.390625 103.582031 209.226562 101.285156 C 210.234375 99.125 210.71875 96.796875 212.09375 94.863281 C 210.601562 96.707031 209.941406 99.0625 208.835938 101.085938 C 207.921875 103.101562 206.152344 104.152344 204.167969 105.097656 C 204.167969 104.902344 204.167969 104.703125 204.175781 104.507812 C 204.328125 100.632812 204.5625 96.710938 205.484375 92.921875 C 204.703125 95.605469 204.269531 98.371094 203.960938 101.152344 C 199.4375 99.296875 196.519531 94.644531 194.492188 90.183594 C 196.328125 94.824219 198.90625 99.769531 203.867188 102.058594 C 203.785156 102.867188 203.710938 103.675781 203.640625 104.480469 C 203.507812 106.4375 203.433594 108.402344 203.585938 110.378906 C 203.667969 111.371094 203.789062 112.363281 204.109375 113.359375 C 204.257812 113.921875 204.640625 114.703125 205.28125 115.148438 C 205.113281 115.335938 204.953125 115.527344 204.78125 115.707031 C 201.332031 119.398438 197 122.257812 192.371094 122.90625 C 192.269531 122.714844 192.175781 122.519531 192.070312 122.332031 C 191.171875 120.71875 190.171875 119.1875 189.089844 117.738281 C 189.027344 115.777344 188.648438 113.863281 188.03125 112.035156 C 191.257812 110.710938 194.292969 108.503906 195.871094 105.398438 C 193.964844 108.320312 190.875 110.078125 187.664062 111.035156 C 186.925781 109.15625 185.953125 107.382812 184.835938 105.761719 C 182.332031 101.835938 178.78125 98.660156 177.160156 94.292969 C 178.507812 98.773438 181.902344 102.242188 184.09375 106.222656 C 185.832031 109.117188 187.042969 112.3125 187.355469 115.566406 C 179.546875 106.390625 168.222656 100.800781 156.8125 98.785156 C 170.558594 102.300781 183.320312 111.332031 188.984375 123.828125 C 191.773438 130.03125 192.03125 137.035156 189.746094 143.144531 C 188.488281 146.53125 186.75 149.730469 184.757812 152.855469 C 183.617188 149.214844 181.945312 145.726562 179.605469 142.679688 C 178.078125 140.628906 176.316406 138.820312 174.417969 137.210938 C 174.789062 135.796875 175.054688 134.183594 174.8125 132.703125 C 174.582031 130.914062 173.980469 129.261719 173.273438 127.710938 C 175.859375 126.355469 176.339844 123.136719 176.59375 120.714844 C 176.871094 117.863281 176.621094 115.023438 176.894531 112.195312 C 176.476562 115.007812 176.578125 117.875 176.160156 120.664062 C 175.820312 123.085938 175.0625 126 172.925781 126.972656 C 172.921875 126.96875 172.921875 126.964844 172.917969 126.957031 C 171.164062 123.441406 168.921875 120.292969 167.867188 116.542969 C 168.960938 123.160156 174.265625 129.574219 172.496094 135.679688 C 170.160156 133.9375 167.671875 132.449219 165.164062 131.152344 C 161.988281 129.496094 158.742188 128.101562 155.550781 126.671875 L 155.542969 126.613281 L 155.421875 125.453125 C 155.359375 124.683594 155.082031 123.953125 154.921875 123.207031 C 154.789062 122.761719 154.632812 122.328125 154.46875 121.898438 C 159.066406 119.839844 160.558594 114.75 162.582031 110.78125 C 160.417969 114.652344 158.355469 119.664062 154.191406 121.203125 C 153.878906 120.46875 153.535156 119.757812 153.164062 119.066406 C 151.742188 116.457031 149.972656 114.140625 148.320312 111.742188 C 149.664062 114.320312 151.144531 116.855469 152.195312 119.519531 C 152.710938 120.851562 153.128906 122.207031 153.359375 123.574219 C 153.417969 124.265625 153.59375 124.9375 153.554688 125.625 L 153.554688 125.765625 C 152.035156 125.066406 150.527344 124.347656 149.058594 123.574219 C 143.921875 120.949219 139.023438 117.011719 137.46875 111.132812 C 138.480469 117.125 143.257812 121.765625 148.289062 124.871094 C 153.042969 127.921875 158.097656 130.347656 162.761719 133.222656 C 162.285156 133.378906 161.824219 133.570312 161.382812 133.8125 C 159.632812 134.746094 158.339844 136.0625 157.074219 137.191406 C 154.609375 139.507812 151.675781 141.152344 148.304688 141.578125 C 146.554688 141.804688 144.808594 141.785156 143.0625 141.609375 C 141.953125 134.296875 134.425781 130.90625 133.472656 123.925781 C 134.160156 130.84375 141.527344 135.0625 142.222656 141.511719 C 137.480469 140.886719 132.757812 139.152344 128.105469 137.859375 C 134.632812 140.09375 141.121094 143.328125 148.445312 142.875 C 149.296875 142.828125 150.136719 142.699219 150.964844 142.5 C 150.195312 144.097656 150 145.890625 149.085938 147.085938 C 147.75 149.421875 144.4375 149.371094 142.285156 151.074219 C 144.539062 149.574219 147.796875 150.070312 149.71875 147.5625 C 151.253906 145.625 151.695312 142.921875 153.195312 141.785156 C 155.078125 141.035156 156.832031 139.953125 158.34375 138.6875 C 160.777344 136.535156 163.128906 135.054688 165.882812 135.246094 C 169.886719 138.027344 173.429688 141.300781 175.867188 145.253906 C 178.5625 149.464844 179.847656 154.351562 180.246094 159.359375 C 179.894531 159.835938 179.539062 160.316406 179.183594 160.792969 C 177.28125 163.363281 175.3125 165.972656 173.421875 168.707031 C 172.914062 166.976562 172.296875 165.289062 171.558594 163.578125 C 173.742188 157.71875 170.832031 152.078125 170.273438 146.613281 C 170.402344 151.578125 172.085938 157.113281 170.648438 161.589844 C 170.640625 161.574219 170.628906 161.554688 170.621094 161.53125 C 167.964844 156.828125 164.160156 153.421875 160.660156 149.8125 C 162.460938 152.574219 164.386719 155.316406 165.910156 158.15625 C 164.714844 158.929688 162.441406 158.761719 160.613281 158.460938 C 158.523438 158.113281 156.453125 157.523438 154.410156 156.851562 C 156.34375 157.792969 158.324219 158.660156 160.414062 159.308594 C 162.304688 159.75 164.339844 160.597656 166.644531 159.605469 C 167.132812 160.628906 167.5625 161.667969 167.902344 162.726562 C 168.257812 164.003906 168.542969 165.390625 168.757812 166.816406 C 163.804688 165.519531 158.398438 165.953125 154.410156 168.847656 C 159.164062 166.445312 164.800781 167.320312 169.085938 169.550781 C 169.261719 171.570312 169.292969 173.578125 169.179688 175.394531 C 168.472656 176.644531 167.792969 177.929688 167.15625 179.257812 C 167.097656 179.222656 167.042969 179.179688 166.984375 179.144531 C 164.078125 177.21875 161.074219 176.398438 158.242188 175.734375 C 155.453125 175.085938 152.5 174.640625 150.316406 173.976562 C 149.285156 173.585938 148.269531 173.15625 147.261719 172.707031 C 147.171875 172.011719 147.089844 171.058594 147.175781 170.242188 C 146.960938 167.882812 145.722656 166.535156 144.675781 164.992188 C 142.421875 162.074219 139.703125 159.742188 137.347656 157.03125 C 139.355469 160.003906 141.808594 162.710938 143.589844 165.722656 C 144.398438 167.152344 145.355469 168.957031 145.210938 170.222656 C 145.175781 170.679688 145.109375 171.160156 145.050781 171.667969 C 144.339844 171.316406 143.632812 170.953125 142.933594 170.574219 C 133.359375 165.34375 125.34375 157.179688 119.460938 147.660156 C 123.375 155.726562 128.816406 163.242188 135.738281 169.292969 C 133.902344 171.054688 130.742188 171.527344 127.921875 171.445312 C 124.246094 171.398438 120.570312 170.621094 116.871094 170.242188 C 120.527344 170.90625 124.105469 171.96875 127.871094 172.3125 C 130.730469 172.601562 134.457031 172.511719 136.941406 170.308594 C 138.285156 171.421875 139.671875 172.488281 141.121094 173.484375 C 143.5 175.113281 145.996094 176.597656 148.59375 177.898438 C 151.160156 178.984375 153.394531 179.5625 155.570312 180.257812 C 154.222656 181.761719 153.835938 183.742188 153.128906 185.074219 C 152.832031 185.972656 152.421875 186.757812 151.910156 187.460938 C 150.671875 187.574219 149.042969 186.6875 147.476562 185.964844 C 145.777344 185.109375 143.839844 184.949219 142.082031 184.757812 C 138.464844 184.4375 134.773438 184.851562 131.4375 186.179688 C 134.871094 185.128906 138.5 185.03125 141.972656 185.621094 C 143.722656 185.964844 145.441406 186.234375 146.894531 187.132812 C 148.027344 187.703125 149.109375 188.558594 150.558594 188.957031 C 150.003906 189.46875 149.386719 189.945312 148.703125 190.40625 C 144.597656 193.109375 139.367188 193.789062 134.367188 194.417969 C 137.90625 194.308594 141.566406 194.222656 145.089844 193.324219 C 144.683594 194.855469 144.140625 196.453125 143.519531 197.890625 C 142.796875 199.710938 141.054688 200.902344 139.5 202.191406 C 141.191406 201.148438 143.164062 200.210938 144.28125 198.316406 C 145.386719 196.503906 146.253906 194.75 147.035156 192.730469 C 147.855469 192.4375 148.664062 192.09375 149.460938 191.679688 C 154.777344 190.058594 155.984375 181.6875 158.910156 181.410156 C 161.527344 182.457031 163.636719 183.828125 164.777344 185.503906 C 164.359375 186.871094 164.003906 188.265625 163.722656 189.683594 C 162.15625 189.941406 160.828125 190.851562 159.953125 191.761719 C 158.429688 193.28125 157.683594 195.273438 157.238281 197.023438 C 156.601562 200.578125 154.464844 203.40625 152.007812 206.121094 C 154.789062 203.9375 157.632812 201.171875 158.878906 197.617188 C 159.59375 195.972656 160.457031 194.597656 161.691406 193.71875 C 162.1875 193.347656 162.714844 193.09375 163.207031 192.957031 C 162.824219 196.257812 162.847656 199.652344 163.410156 203.078125 C 164.855469 211.378906 168.6875 218.136719 171.390625 224.402344 C 172.902344 227.679688 173.257812 229.488281 173.660156 232.863281 C 173.855469 234.8125 173.972656 236.941406 174.09375 239.148438 L 187.605469 239.148438 C 187.253906 236.558594 186.914062 233.878906 186.390625 230.972656 C 185.832031 227.253906 184.019531 222.164062 182.171875 219.113281 C 178.625 212.582031 174.953125 206.863281 173.503906 201.050781 C 172.027344 195.34375 172.796875 188.828125 174.980469 182.753906 C 176.132812 179.695312 177.648438 176.691406 179.351562 173.695312 C 181.855469 171.84375 185.234375 171.464844 189 171.828125 C 189.042969 173.285156 189.214844 174.726562 189.496094 176.140625 C 187.945312 177.246094 186.699219 178.71875 186.019531 180.550781 C 185.199219 183.136719 185.941406 185.015625 185.6875 186.898438 C 185.507812 190.734375 182.648438 193.914062 180.511719 197.308594 C 183.039062 194.285156 186.480469 191.582031 187.414062 187.160156 C 187.917969 185.09375 187.691406 182.777344 188.425781 181.574219 C 188.878906 180.742188 189.574219 180.023438 190.378906 179.464844 C 191.449219 182.664062 193.097656 185.65625 195.1875 188.285156 C 195.6875 190.3125 194.792969 195.019531 194.792969 195.019531 C 191.070312 197.503906 189.769531 201.777344 189.265625 205.660156 C 188.863281 209.597656 189.296875 213.8125 191.46875 217.144531 C 189.535156 213.683594 189.417969 209.546875 190.058594 205.777344 C 190.695312 202.371094 192.171875 198.8125 194.835938 196.894531 C 194.847656 199.25 195.828125 201.757812 197.507812 203.308594 C 201.371094 207.085938 206.585938 209.15625 211.765625 209.234375 C 206.644531 208.75 201.699219 206.183594 198.492188 202.449219 C 195.375 199.21875 197.21875 195.527344 197.710938 191.074219 C 200.121094 193.414062 202.910156 195.328125 205.941406 196.644531 C 209.933594 198.523438 214.21875 199.65625 218.550781 200.054688 C 219.414062 202.292969 220.261719 204.578125 221.605469 206.628906 C 223.046875 208.898438 225.496094 210.1875 227.914062 211.019531 C 225.53125 210.046875 223.222656 208.640625 221.972656 206.394531 Z M 205.996094 185.988281 C 205.714844 185.589844 204.894531 182.414062 200.996094 183.101562 L 200.992188 183.097656 L 200.992188 183.101562 C 201.703125 187.40625 205.828125 186.25 205.996094 185.988281 L 206 185.988281 Z M 208.425781 182.058594 L 208.425781 182.054688 C 208.75 181.476562 211.679688 181.078125 211.316406 177.0625 L 211.320312 177.0625 L 211.316406 177.0625 L 211.316406 177.058594 L 211.316406 177.0625 C 206.941406 177.425781 207.859375 182.066406 208.421875 182.054688 L 208.421875 182.058594 Z M 213.78125 183.136719 C 214.394531 183.324219 217.964844 180.957031 216.890625 176.808594 L 216.894531 176.808594 L 216.890625 176.808594 L 216.890625 176.804688 L 216.890625 176.808594 C 212.390625 178.894531 214.085938 182.761719 213.777344 183.132812 L 213.773438 183.136719 Z M 229.460938 189.058594 C 226.078125 186.164062 223.089844 187.871094 222.460938 187.949219 L 222.457031 187.949219 L 222.457031 187.953125 L 222.453125 187.953125 L 222.457031 187.953125 C 222.363281 188.265625 225.597656 192.082031 229.460938 189.0625 L 229.464844 189.0625 L 229.464844 189.058594 Z M 221.449219 194.835938 C 219.792969 193.199219 218.5625 192.84375 217.460938 192.671875 C 216.480469 192.5625 214.949219 192.367188 215.21875 192.722656 C 214.828125 192.613281 215.335938 193.917969 216.390625 194.835938 C 217.542969 195.816406 219.617188 196.175781 221.449219 194.839844 L 221.453125 194.839844 L 221.453125 194.835938 Z M 220.789062 173.625 L 220.785156 173.625 L 220.785156 173.621094 L 220.785156 173.625 C 218.890625 174.3125 219.328125 176.578125 219.980469 176.941406 C 220.589844 177.496094 221.398438 177.75 221.5625 177.84375 L 221.566406 177.84375 L 221.566406 177.839844 C 221.679688 177.757812 222.25 176.941406 222.226562 176.03125 C 222.226562 174.972656 221.953125 175.09375 220.789062 173.625 Z M 228.128906 178.507812 C 225.070312 175.914062 222.984375 178.882812 222.792969 179.175781 L 222.789062 179.175781 L 222.792969 179.175781 C 223.050781 179.410156 225.804688 181.777344 228.128906 178.511719 Z M 229.511719 171.890625 L 229.511719 171.886719 L 229.507812 171.890625 C 225.535156 170.855469 225.015625 174.984375 225.285156 175.21875 L 225.28125 175.222656 L 225.285156 175.21875 L 225.285156 175.222656 C 225.78125 175.035156 228.835938 175.792969 229.511719 171.890625 Z M 126.777344 172.894531 L 126.777344 172.890625 L 126.773438 172.890625 C 126.4375 172.878906 121.84375 172.566406 120.660156 177.753906 L 120.65625 177.757812 L 120.664062 177.757812 C 125.976562 178.421875 127.175781 173.105469 126.773438 172.894531 Z M 123.929688 156.5 L 123.9375 156.5 L 123.933594 156.496094 C 123.679688 156.246094 120.351562 152.753906 115.753906 155.925781 L 115.746094 155.925781 L 115.75 155.925781 L 115.746094 155.929688 L 115.753906 155.929688 C 119.382812 160.203125 124.089844 156.945312 123.929688 156.5 Z M 134.292969 172.933594 L 134.292969 172.929688 L 134.292969 172.933594 C 134.105469 172.992188 130.539062 174.261719 133.160156 177.335938 L 133.164062 177.335938 C 136.25 175.820312 134.574219 173.285156 134.292969 172.933594 L 134.296875 172.929688 Z M 144.59375 200.5 L 144.59375 200.496094 L 144.589844 200.496094 C 144.265625 200.546875 141.53125 202.941406 144.816406 204.898438 L 144.816406 204.902344 L 144.820312 204.902344 L 144.820312 204.898438 C 147.4375 202.453125 144.804688 200.804688 144.59375 200.5 Z M 149.007812 202.640625 L 149.003906 202.640625 L 149.007812 202.644531 C 152.0625 204.769531 153.3125 202.007812 153.753906 201.855469 L 153.757812 201.855469 L 153.757812 201.851562 C 153.808594 201.414062 150.605469 199.007812 149.007812 202.640625 Z M 197.730469 94.070312 L 197.730469 94.074219 L 197.734375 94.074219 L 197.734375 94.070312 C 197.96875 93.503906 202.222656 92.871094 200.695312 87.867188 L 200.695312 87.863281 L 200.691406 87.863281 C 195.5625 88.816406 197.035156 93.910156 197.730469 94.070312 Z M 238.640625 118.25 L 238.636719 118.25 L 238.636719 118.253906 C 238.390625 118.824219 240.117188 121.746094 242.824219 119.71875 L 242.828125 119.71875 L 242.824219 119.71875 C 241.402344 115.945312 238.929688 118.460938 238.640625 118.25 Z M 257.308594 160.726562 C 255.234375 156.65625 251.910156 158.277344 251.542969 157.792969 L 251.539062 157.789062 L 251.539062 157.792969 C 251.023438 158.386719 253.316406 162.320312 257.308594 160.730469 L 257.3125 160.730469 L 257.3125 160.726562 Z M 254.933594 149.769531 L 254.929688 149.773438 C 250.152344 150.480469 250.429688 155.46875 251.199219 155.644531 L 251.199219 155.640625 C 251.226562 155.144531 254.820312 154.191406 254.933594 149.773438 L 254.9375 149.773438 L 254.933594 149.773438 Z M 251.066406 134.835938 L 251.070312 134.832031 L 251.066406 134.832031 L 251.066406 134.828125 L 251.0625 134.832031 C 248.125 136.351562 247.535156 139.386719 247.992188 141.324219 C 248.382812 143.398438 249.816406 144.476562 250.011719 144.566406 L 250.015625 144.574219 L 250.015625 144.570312 L 250.019531 144.574219 L 250.015625 144.566406 C 250.125 143.5625 252.703125 140.398438 251.066406 134.835938 Z M 259.007812 146.039062 C 256.585938 142.6875 253.609375 144.953125 253.464844 144.804688 L 253.464844 144.796875 L 253.460938 144.800781 C 253.144531 145.394531 255.742188 148.550781 259.003906 146.042969 L 259.007812 146.042969 Z M 260.480469 137.003906 L 260.476562 137.003906 C 255.773438 137.007812 255.640625 141.203125 255.503906 141.519531 L 255.5 141.523438 L 255.503906 141.523438 L 255.5 141.523438 L 255.503906 141.523438 C 255.953125 141.636719 259.902344 141.25 260.480469 137.007812 Z M 209.648438 133.472656 C 210.015625 133.453125 212.789062 133.820312 213.003906 130.574219 L 213.007812 130.574219 L 213.003906 130.574219 L 213.003906 130.570312 L 213.003906 130.574219 C 209.578125 129.945312 209.5625 133.257812 209.644531 133.46875 L 209.644531 133.472656 Z M 206.570312 131.203125 C 205.960938 130.179688 205.382812 130.203125 203.949219 129.371094 L 203.949219 129.367188 L 203.949219 129.371094 L 203.949219 129.367188 L 203.949219 129.371094 C 202.910156 131.105469 204.542969 132.585938 205.199219 132.734375 C 206.003906 133.03125 206.757812 133.101562 206.941406 133.175781 L 206.949219 133.175781 L 206.945312 133.175781 C 207.015625 133.078125 207.152344 132.066406 206.570312 131.203125 Z M 209.308594 128.640625 L 209.308594 128.644531 L 209.308594 128.640625 C 209.660156 128.371094 212.089844 126.90625 210.851562 123.75 L 210.851562 123.746094 L 210.851562 123.75 L 210.851562 123.746094 L 210.847656 123.75 C 207.324219 125.277344 209.144531 128.527344 209.308594 128.640625 L 209.304688 128.640625 Z M 178.722656 201.785156 C 181.964844 200.878906 180.074219 198.628906 180.058594 198.242188 L 180.058594 198.238281 L 180.058594 198.242188 C 179.738281 198.039062 176.363281 198.964844 178.71875 201.785156 Z M 222.394531 209.339844 C 222.394531 209.339844 222.390625 209.339844 222.390625 209.339844 Z M 223.089844 211.09375 C 222.828125 210.1875 222.390625 209.339844 222.390625 209.339844 C 222.363281 209.351562 221.027344 209.851562 220.671875 210.933594 C 220.183594 212.152344 220.738281 214.171875 222.765625 214.738281 L 222.769531 214.738281 L 222.769531 214.734375 C 223.398438 212.738281 223.378906 211.957031 223.089844 211.09375 Z M 239.167969 201.910156 C 238.023438 199.898438 236.351562 199.765625 235.777344 199.667969 C 235.058594 199.714844 234.042969 199.144531 233.839844 199.140625 L 233.839844 199.136719 L 233.839844 199.140625 L 233.835938 199.136719 L 233.839844 199.140625 C 233.882812 199.25 233.226562 200.433594 234.496094 201.71875 C 235.871094 202.933594 237.375 202.742188 239.167969 201.914062 L 239.171875 201.914062 Z M 237.414062 175.335938 L 237.417969 175.332031 L 237.414062 175.332031 L 237.414062 175.328125 L 237.414062 175.332031 C 231.546875 175.972656 232.402344 181.480469 232.648438 181.835938 C 233.152344 181.613281 237.664062 180.597656 237.414062 175.335938 Z M 242.855469 170.9375 L 242.855469 170.941406 L 242.855469 170.9375 C 243.0625 170.699219 244.046875 169.621094 244.957031 168.441406 C 245.910156 167.160156 246.414062 165.78125 246.765625 162.707031 L 246.769531 162.707031 L 246.765625 162.707031 L 246.769531 162.703125 L 246.765625 162.707031 C 243.480469 162.714844 241.765625 165.441406 241.714844 167.398438 C 241.535156 169.480469 242.699219 170.792969 242.855469 170.9375 L 242.851562 170.941406 Z M 248.859375 175.960938 C 248.324219 172.476562 244.722656 172.894531 244.429688 173.414062 L 244.429688 173.410156 L 244.429688 173.414062 L 244.425781 173.414062 L 244.429688 173.414062 C 244.828125 173.5625 244.738281 177.21875 248.855469 175.964844 L 248.859375 175.964844 Z M 195.714844 222.882812 C 195.152344 218.976562 192.234375 218.773438 191.65625 218.449219 L 191.65625 218.445312 L 191.65625 218.449219 L 191.652344 218.449219 L 191.65625 218.453125 C 191.332031 218.511719 191.109375 223.339844 195.710938 222.886719 L 195.714844 222.886719 Z M 206.160156 206.671875 C 206.769531 206.523438 209.769531 207.125 211.277344 203.394531 L 211.28125 203.390625 L 211.277344 203.390625 L 211.28125 203.390625 L 211.277344 203.390625 C 206.960938 201.894531 205.902344 206.484375 206.160156 206.667969 L 206.15625 206.671875 Z M 191.214844 210.367188 C 191.5625 210.84375 191.488281 210.757812 191.542969 210.984375 C 191.601562 211.347656 191.925781 211.984375 192.316406 212.5 C 193.203125 213.644531 194.160156 214.183594 196.292969 214.96875 L 196.292969 214.972656 L 196.296875 214.972656 L 196.292969 214.96875 C 196.632812 209.929688 191.71875 210.007812 191.214844 210.367188 Z M 231.390625 206.667969 C 229.933594 204.609375 227.597656 204.421875 226.082031 205.011719 C 224.386719 205.523438 223.941406 207.140625 224.046875 207.25 L 224.042969 207.25 L 224.046875 207.25 L 224.046875 207.253906 L 224.046875 207.25 C 224.824219 206.714844 227.195312 208.378906 231.386719 206.671875 L 231.390625 206.671875 Z M 230.183594 197.980469 L 230.183594 197.984375 L 230.1875 197.980469 C 230.75 197.453125 233.539062 196.179688 234.625 192.003906 L 234.628906 192 L 234.628906 191.996094 L 234.625 192 C 232.125 191.835938 230.546875 193.679688 230.148438 195.117188 C 229.664062 196.613281 230.117188 197.8125 230.183594 197.980469 L 230.179688 197.984375 Z M 248.429688 183.273438 C 245.1875 177.777344 239.109375 181.5625 239.246094 182.023438 L 239.242188 182.023438 L 239.246094 182.023438 L 239.242188 182.027344 L 239.246094 182.027344 C 240.140625 182.4375 242.714844 186.078125 248.429688 183.277344 L 248.433594 183.277344 L 248.429688 183.273438 L 248.433594 183.273438 Z M 240.992188 187.285156 C 238.09375 183.59375 233.839844 183.984375 233.273438 184.382812 L 233.269531 184.382812 L 233.273438 184.382812 L 233.269531 184.382812 L 233.273438 184.386719 C 233.417969 184.582031 234.074219 185.601562 235.238281 186.554688 C 236.332031 187.460938 238.589844 188.484375 240.992188 187.285156 L 240.996094 187.289062 L 240.992188 187.285156 L 240.996094 187.285156 Z M 188.945312 211.109375 C 188.964844 210.972656 187.371094 210.253906 186.011719 211.515625 C 184.730469 212.53125 183.914062 214.765625 185.269531 216.804688 L 185.269531 216.808594 L 185.273438 216.804688 L 185.273438 216.808594 L 185.273438 216.804688 C 188.433594 213.847656 187.929688 211.523438 188.945312 211.113281 L 188.949219 211.113281 L 188.945312 211.113281 L 188.949219 211.109375 Z M 174.738281 195.28125 C 179.699219 194.542969 181.375 191.742188 182.367188 192.097656 L 182.371094 192.097656 L 182.367188 192.09375 C 182.464844 191.878906 181.15625 190.582031 179.21875 190.996094 C 177.417969 191.28125 175.320312 192.636719 174.738281 195.277344 L 174.734375 195.28125 L 174.734375 195.285156 Z M 183.246094 199.539062 C 183.3125 200.574219 183.46875 201.335938 184.59375 203.289062 L 184.59375 203.292969 L 184.597656 203.292969 C 186.429688 202.113281 186.421875 199.722656 185.5 198.652344 C 184.621094 197.597656 183.867188 197.273438 183.535156 197.214844 L 183.53125 197.210938 L 183.535156 197.21875 C 183.550781 197.222656 183.128906 198.523438 183.246094 199.539062 Z M 190.394531 194.800781 L 190.398438 194.800781 L 190.398438 194.796875 C 192.019531 193.09375 191.261719 190.859375 190.292969 189.984375 C 189.820312 189.457031 189.253906 189.199219 188.839844 189.050781 C 188.625 188.972656 188.230469 188.878906 188.230469 188.878906 C 188.230469 188.878906 188.097656 189.113281 188.078125 189.199219 C 187.953125 189.6875 188.023438 190.253906 188.203125 191.199219 C 188.4375 192.34375 188.988281 193.148438 190.394531 194.796875 Z M 184.414062 182.832031 C 182.785156 181.28125 180.652344 181.804688 179.710938 182.792969 C 178.65625 183.78125 178.691406 185.003906 178.710938 185.144531 L 178.710938 185.148438 L 178.714844 185.148438 C 178.929688 185.121094 179.9375 185.035156 180.914062 184.890625 C 181.953125 184.707031 182.824219 184.289062 184.414062 182.835938 Z M 260.476562 151.859375 L 260.472656 151.859375 C 256.902344 150.527344 256.210938 153.90625 256.160156 154.238281 L 256.15625 154.242188 L 256.160156 154.242188 C 256.46875 154.371094 259.761719 155.707031 260.476562 151.863281 L 260.480469 151.859375 Z M 242.855469 150.625 L 242.855469 150.621094 C 243.003906 150.53125 243.855469 149.796875 244.316406 148.71875 C 244.851562 147.546875 244.765625 146.726562 244.554688 144.617188 L 244.558594 144.613281 L 244.554688 144.613281 C 242.25 144.996094 241.648438 147.335938 241.914062 148.414062 C 242.113281 149.625 242.746094 150.449219 242.851562 150.621094 L 242.851562 150.625 Z M 234.789062 140.625 L 234.789062 140.628906 L 234.789062 140.625 L 234.792969 140.628906 L 234.789062 140.625 C 234.746094 140.269531 235.066406 135.816406 230.25 134.730469 L 230.25 134.726562 L 230.25 134.730469 L 230.246094 134.730469 L 230.25 134.730469 C 230.316406 139.347656 234.320312 140.585938 234.789062 140.625 Z M 235.359375 146.640625 L 235.363281 146.640625 C 235.902344 146.347656 239.136719 146.867188 240.925781 143.011719 L 240.929688 143.011719 L 240.925781 143.011719 L 240.929688 143.007812 L 240.925781 143.011719 C 236.359375 141.597656 234.992188 146.355469 235.359375 146.636719 Z M 199.078125 159.511719 C 198.671875 158.992188 198.34375 155.859375 194.789062 153.730469 L 194.789062 153.726562 L 194.789062 153.730469 L 194.785156 153.726562 L 194.785156 153.730469 C 193.1875 158.914062 198.949219 160.085938 199.078125 159.511719 L 199.082031 159.515625 L 199.082031 159.511719 Z M 208.640625 152.136719 C 203.519531 153.253906 203.175781 157.964844 203.0625 158.347656 L 203.0625 158.351562 L 203.066406 158.347656 C 203.5625 158.328125 207.984375 157.136719 208.640625 152.140625 L 208.644531 152.136719 Z M 199.472656 143.484375 L 199.472656 143.480469 L 199.46875 143.484375 L 199.46875 143.480469 L 199.46875 143.484375 C 196.28125 147.863281 199.113281 152.515625 199.898438 152.480469 L 199.898438 152.484375 L 199.898438 152.480469 L 199.902344 152.480469 L 199.898438 152.476562 C 199.601562 151.917969 202.226562 148.207031 199.472656 143.484375 Z M 179.992188 97.328125 L 179.992188 97.332031 L 179.996094 97.324219 C 180.730469 96.960938 185.457031 94.578125 185.839844 88.285156 L 185.84375 88.28125 L 185.839844 88.28125 L 185.839844 88.273438 L 185.835938 88.28125 C 178.785156 90.042969 179.84375 97.03125 179.992188 97.324219 Z M 184.386719 103.269531 L 184.382812 103.269531 L 184.386719 103.269531 L 184.386719 103.273438 L 184.386719 103.269531 C 184.773438 103.183594 188.601562 102.253906 188.03125 97.917969 L 188.035156 97.914062 L 188.03125 97.914062 L 188.03125 97.917969 C 183.710938 98.921875 184.3125 102.910156 184.386719 103.269531 Z M 202.628906 109.914062 L 202.632812 109.917969 L 202.632812 109.914062 C 201.707031 106.144531 199.34375 108.117188 198.984375 107.558594 L 198.980469 107.558594 L 198.984375 107.558594 C 198.160156 107.875 199.539062 111.8125 202.628906 109.914062 Z M 191.253906 109.269531 L 191.253906 109.273438 L 191.253906 109.269531 L 191.257812 109.273438 L 191.253906 109.269531 C 193.550781 105.664062 190.414062 103.964844 190.609375 103.488281 L 190.609375 103.484375 L 190.609375 103.488281 C 189.839844 103.328125 187.75 107.109375 191.253906 109.269531 Z M 199.410156 101.773438 C 197.679688 101.179688 196.546875 102.15625 196.367188 103.085938 C 196.113281 104.019531 196.566406 104.859375 196.621094 104.984375 L 196.625 104.988281 L 196.625 104.984375 C 196.804688 104.972656 197.679688 104.820312 198.339844 104.484375 C 199.011719 104.09375 199.386719 103.628906 199.410156 101.773438 L 199.414062 101.773438 L 199.410156 101.773438 L 199.410156 101.769531 Z M 192.117188 111.203125 L 192.113281 111.199219 L 192.117188 111.203125 L 192.113281 111.203125 L 192.117188 111.203125 C 191.851562 111.660156 194.574219 115.558594 198.550781 113.34375 L 198.554688 113.347656 L 198.550781 113.34375 L 198.554688 113.34375 L 198.550781 113.34375 C 195.777344 109.726562 192.703125 111.410156 192.117188 111.203125 Z M 150.082031 127.738281 C 149.976562 127.65625 148.773438 127.238281 147.535156 127.976562 C 146.265625 128.699219 145.5625 129.960938 145.597656 132.050781 L 145.59375 132.054688 L 145.597656 132.054688 L 145.597656 132.058594 L 145.601562 132.054688 C 149.984375 131.269531 149.414062 128.109375 150.082031 127.738281 L 150.085938 127.738281 L 150.082031 127.738281 L 150.085938 127.734375 Z M 153.125 138.929688 C 153.019531 138.703125 152.632812 137.625 151.828125 136.425781 C 151.117188 135.328125 149.136719 133.546875 146.5625 134.296875 L 146.558594 134.292969 L 146.5625 134.296875 L 146.558594 134.296875 L 146.5625 134.296875 C 147.929688 136.308594 148.753906 137.425781 150.222656 138.234375 C 151.589844 139.035156 152.945312 138.972656 153.125 138.933594 L 153.128906 138.9375 L 153.128906 138.933594 Z M 134.839844 108.765625 C 135.617188 110.144531 137.058594 110.472656 137.207031 110.433594 L 137.210938 110.433594 L 137.210938 110.429688 C 137.207031 110.148438 137.425781 109.113281 137.550781 107.96875 C 137.648438 106.992188 137.210938 104.550781 134.597656 103.902344 L 134.59375 103.902344 L 134.597656 103.90625 C 134.125 106.199219 133.96875 107.316406 134.839844 108.765625 Z M 142.234375 114.78125 C 145.066406 118.84375 149.867188 116.953125 149.917969 116.382812 L 149.921875 116.382812 L 149.921875 116.378906 L 149.917969 116.378906 C 149.253906 116.304688 146.980469 113.203125 142.234375 114.78125 L 142.230469 114.777344 L 142.234375 114.78125 L 142.230469 114.78125 Z M 147.949219 110.789062 L 147.953125 110.792969 L 147.953125 110.789062 L 147.957031 110.789062 L 147.953125 110.785156 C 147.675781 109.929688 148.273438 104.816406 143.007812 100.707031 L 143.003906 100.699219 L 143.003906 100.707031 C 141.113281 107.550781 147.488281 111.015625 147.949219 110.789062 Z M 156.363281 109.636719 L 156.363281 109.632812 L 156.359375 109.636719 L 156.359375 109.632812 L 156.359375 109.636719 C 155.644531 111.75 155.570312 113.226562 156.324219 114.667969 C 157.019531 116.074219 158.296875 116.496094 158.441406 116.511719 L 158.445312 116.511719 L 158.441406 116.507812 C 158.457031 116.261719 158.585938 115.226562 158.664062 114.050781 C 158.683594 112.972656 158.488281 110.910156 156.363281 109.636719 Z M 166.585938 113.820312 C 163.621094 111.585938 161.242188 114.851562 162.101562 115.421875 L 162.101562 115.417969 C 161.890625 115.183594 164.902344 117.390625 166.585938 113.820312 L 166.589844 113.820312 L 166.585938 113.820312 L 166.589844 113.820312 Z M 164.089844 146.710938 C 164.292969 148.765625 165.132812 150.179688 166.316406 151.003906 C 167.457031 151.898438 168.847656 151.742188 168.910156 151.523438 L 168.914062 151.523438 L 168.910156 151.519531 C 168.175781 151.476562 168.308594 148.042969 164.09375 146.707031 L 164.089844 146.703125 Z M 175.488281 148.691406 L 175.488281 148.6875 L 175.484375 148.691406 C 172.160156 150.632812 172.894531 153.332031 172.28125 153.625 L 172.277344 153.628906 L 172.28125 153.628906 C 172.625 154.390625 176.863281 152.519531 175.488281 148.691406 L 175.488281 148.6875 Z M 163.0625 165.007812 L 163.0625 165.011719 L 163.0625 165.007812 L 163.066406 165.007812 L 163.0625 165.007812 C 163.109375 164.582031 164.34375 162.015625 160.984375 161.8125 L 160.980469 161.808594 L 160.980469 161.8125 L 160.980469 161.808594 L 160.980469 161.8125 C 159.285156 165.097656 162.863281 165.160156 163.0625 165.007812 Z M 149.605469 172.203125 L 149.601562 172.207031 L 149.605469 172.207031 C 153.484375 172.550781 153.328125 169.453125 153.769531 169.171875 L 153.769531 169.167969 C 153.625 168.625 149.4375 168.164062 149.605469 172.203125 Z M 164.820312 169.972656 C 164.585938 170.011719 163.523438 170.230469 162.433594 170.382812 C 161.441406 170.585938 159.585938 171.027344 158.417969 173.164062 L 158.414062 173.167969 L 158.421875 173.167969 C 160.59375 173.796875 162.226562 173.609375 163.558594 172.527344 C 164.847656 171.464844 164.832031 170.113281 164.824219 169.972656 L 164.828125 169.96875 L 164.824219 169.96875 Z M 152.007812 161.8125 C 155.113281 164.996094 157.546875 161.140625 157.136719 160.210938 L 157.136719 160.207031 L 157.136719 160.210938 L 157.132812 160.210938 L 157.136719 160.214844 C 157.175781 160.792969 154.535156 158.910156 152.011719 161.808594 L 152.007812 161.808594 Z M 157.457031 152.460938 L 157.453125 152.460938 L 157.457031 152.460938 C 155.574219 155.734375 159.101562 157.226562 159.535156 156.9375 L 159.535156 156.941406 L 159.535156 156.9375 L 159.539062 156.9375 C 159.347656 156.527344 161.210938 153.808594 157.457031 152.460938 Z M 160.261719 149.257812 L 160.265625 149.261719 L 160.265625 149.257812 C 160.1875 148.738281 160.484375 145.109375 156.421875 143.503906 L 156.421875 143.5 L 156.417969 143.503906 L 156.417969 143.5 L 156.417969 143.507812 C 155.433594 148.207031 159.972656 149.351562 160.261719 149.257812 Z M 148.933594 210.519531 L 148.933594 210.523438 L 148.9375 210.523438 C 152.699219 209.816406 151.304688 206.871094 151.65625 206.6875 L 151.65625 206.683594 L 151.660156 206.683594 L 151.65625 206.683594 C 151.292969 206.015625 147.421875 207.019531 148.933594 210.519531 Z M 160.019531 189.484375 L 160.019531 189.488281 C 160.019531 189.484375 160.019531 189.484375 160.019531 189.484375 C 160.019531 189.484375 160.023438 189.484375 160.023438 189.484375 L 160.019531 189.484375 C 160.269531 189.261719 162.015625 186.28125 158.417969 185.167969 L 158.417969 185.164062 L 158.417969 185.167969 L 158.414062 185.167969 L 158.417969 185.167969 C 156.492188 188.378906 159.730469 189.417969 160.019531 189.484375 Z M 154.660156 193.277344 C 153.496094 192.46875 151.300781 192.785156 150.566406 194.761719 L 150.566406 194.765625 L 150.570312 194.765625 C 152.457031 195.589844 153.132812 195.703125 153.933594 195.582031 C 154.675781 195.425781 155.640625 195.394531 155.847656 195.402344 L 155.855469 195.402344 L 155.851562 195.402344 C 155.871094 195.292969 155.921875 194.050781 154.660156 193.277344 Z M 156.042969 203.910156 L 156.039062 203.90625 L 156.039062 203.910156 L 156.035156 203.90625 L 156.039062 203.914062 C 155.992188 204.878906 154.910156 208.8125 157.855469 213.582031 L 157.855469 213.585938 L 157.855469 213.582031 L 157.859375 213.585938 L 157.859375 213.582031 C 160.15625 211.285156 159.753906 208.132812 158.742188 206.480469 C 157.746094 204.699219 156.261719 204.015625 156.042969 203.910156 Z M 122.667969 150.769531 L 122.671875 150.769531 L 122.671875 150.765625 C 123.046875 150.761719 126.820312 147.242188 123.234375 143.46875 L 123.234375 143.464844 L 123.230469 143.46875 L 123.230469 143.464844 L 123.230469 143.46875 C 119.871094 147.113281 122.480469 150.183594 122.667969 150.765625 Z M 148.796875 158.453125 C 144.238281 159.363281 145.203125 164.476562 146.074219 164.367188 L 146.078125 164.371094 L 146.078125 164.367188 C 146.078125 163.617188 149.199219 162.820312 148.800781 158.457031 L 148.804688 158.453125 L 148.800781 158.453125 L 148.800781 158.449219 Z M 145.019531 97.609375 C 150.753906 102.527344 154.507812 98.261719 155.574219 98.792969 L 155.582031 98.792969 L 155.578125 98.792969 L 155.585938 98.789062 L 155.578125 98.789062 C 155.542969 98.574219 154.695312 96.671875 152.398438 95.960938 C 150.042969 95.1875 147.859375 95.703125 145.019531 97.605469 L 145.015625 97.601562 L 145.015625 97.605469 Z M 160.0625 101.175781 C 153.328125 100.871094 153.042969 105.925781 152.003906 106.140625 L 151.996094 106.140625 L 152 106.144531 L 151.996094 106.144531 L 152.003906 106.144531 C 152.144531 106.273438 153.785156 107.144531 155.792969 106.382812 C 157.871094 105.628906 159.117188 104.070312 160.0625 101.179688 L 160.066406 101.175781 L 160.066406 101.171875 Z M 162.210938 98.753906 L 162.210938 98.757812 L 162.214844 98.757812 L 162.214844 98.753906 C 162.371094 98.648438 163.589844 97.242188 163.296875 95.121094 C 163.03125 92.929688 161.789062 91.363281 159.179688 89.796875 L 159.175781 89.789062 L 159.175781 89.796875 L 159.171875 89.792969 L 159.175781 89.796875 C 157.363281 96.28125 162.234375 97.691406 162.210938 98.753906 Z M 169.179688 122.472656 C 168.320312 122.503906 167.902344 120.027344 164.207031 120.910156 L 164.203125 120.90625 L 164.203125 120.910156 L 164.207031 120.910156 C 164.816406 125.324219 169.140625 123.28125 169.179688 122.476562 L 169.183594 122.472656 L 169.179688 122.472656 L 169.183594 122.472656 Z M 172.765625 116.882812 C 174.515625 117.585938 176.015625 116.542969 176.023438 116.363281 L 176.027344 116.363281 L 176.027344 116.359375 L 176.023438 116.359375 C 174.953125 115.90625 175.195312 112.695312 170.1875 111.675781 L 170.1875 111.671875 L 170.183594 111.671875 L 170.183594 111.675781 C 169.414062 114.445312 171.113281 116.363281 172.765625 116.882812 Z M 181.136719 116.402344 C 177.167969 116.839844 177.636719 119.839844 177.203125 120.152344 L 177.195312 120.152344 L 177.199219 120.152344 C 177.339844 120.832031 181.871094 120.511719 181.136719 116.402344 L 181.140625 116.402344 L 181.136719 116.402344 L 181.136719 116.398438 Z M 203.136719 211.347656 C 201.988281 209.777344 201.605469 208.207031 201.488281 207.824219 L 201.492188 207.816406 L 201.488281 207.820312 L 201.488281 207.816406 L 201.488281 207.824219 C 201.355469 207.910156 199.675781 209.578125 200.324219 212.398438 C 200.914062 215.148438 202.832031 217.34375 205.769531 219.363281 L 205.773438 219.367188 L 205.773438 219.363281 L 205.777344 219.367188 L 205.773438 219.363281 C 206.035156 215.585938 204.117188 212.953125 203.136719 211.347656 Z M 206.472656 200.128906 C 202.621094 197.265625 199.644531 200.089844 199.21875 199.785156 L 199.21875 199.78125 L 199.21875 199.785156 L 199.214844 199.785156 L 199.21875 199.785156 C 199.097656 200.582031 202.988281 203.199219 206.472656 200.128906 L 206.476562 200.128906 L 206.472656 200.128906 L 206.476562 200.128906 Z M 246.984375 193.886719 C 244.761719 191.382812 240.972656 192.855469 240.132812 194.097656 C 238.957031 195.289062 238.257812 196.574219 238.117188 196.839844 L 238.109375 196.84375 L 238.113281 196.84375 L 238.113281 196.847656 L 238.117188 196.84375 C 238.332031 196.929688 239.882812 197.453125 241.722656 196.929688 C 243.761719 196.335938 244.304688 195.613281 246.984375 193.890625 L 246.988281 193.890625 L 246.984375 193.890625 L 246.988281 193.890625 Z M 218.21875 211.265625 C 216.269531 207.453125 213.085938 209.273438 212.695312 209.199219 L 212.691406 209.195312 L 212.691406 209.199219 L 212.695312 209.199219 C 212.609375 209.660156 214.550781 213.125 218.21875 211.269531 L 218.222656 211.269531 L 218.21875 211.265625 L 218.222656 211.265625 Z M 142.648438 153.8125 L 142.644531 153.8125 L 142.644531 153.816406 C 142.492188 153.953125 141.636719 154.5 141.085938 155.605469 C 140.429688 156.523438 140.628906 159.304688 142.929688 159.8125 L 142.933594 159.8125 L 142.933594 159.808594 C 143.347656 157.703125 143.671875 157.253906 143.472656 156.011719 C 143.339844 154.902344 142.765625 153.9375 142.648438 153.816406 Z M 131.074219 180.726562 C 132.269531 184.613281 134.789062 183.859375 135.3125 184.542969 L 135.3125 184.546875 L 135.3125 184.542969 L 135.316406 184.546875 L 135.316406 184.542969 C 135.394531 184.449219 135.882812 183.3125 135.160156 182.109375 C 134.476562 180.90625 133.042969 180.167969 131.074219 180.726562 L 131.070312 180.722656 L 131.070312 180.726562 Z M 133.117188 140.472656 C 132.992188 140.402344 131.523438 140.054688 130.109375 140.695312 C 128.566406 141.414062 127.855469 142.339844 127.039062 144.890625 L 127.035156 144.890625 L 127.039062 144.894531 L 127.035156 144.894531 L 127.039062 144.894531 C 129.667969 145.773438 131.582031 144.152344 132.121094 143.101562 C 132.78125 141.953125 133.03125 140.78125 133.121094 140.476562 L 133.125 140.472656 L 133.121094 140.472656 L 133.121094 140.46875 Z M 140.640625 186.207031 L 140.636719 186.207031 C 140.523438 186.199219 139.378906 186.40625 138.582031 187.292969 C 137.710938 188.277344 137.496094 189.148438 137.703125 191.199219 L 137.703125 191.207031 L 137.703125 191.203125 L 137.703125 191.207031 L 137.707031 191.203125 C 139.835938 191.019531 140.683594 189.28125 140.742188 188.375 C 140.855469 187.359375 140.671875 186.457031 140.640625 186.210938 Z M 147.394531 185.609375 L 147.390625 185.613281 L 147.394531 185.609375 L 147.394531 185.613281 L 147.394531 185.609375 C 147.730469 185.738281 151.179688 182.375 147.535156 179.382812 L 147.535156 179.378906 L 147.53125 179.382812 L 147.53125 179.378906 L 147.53125 179.382812 C 145.238281 182.640625 147.253906 185.046875 147.394531 185.609375 Z M 128.78125 158.125 L 128.78125 158.121094 C 129.003906 157.9375 130.160156 157.117188 131.066406 155.746094 C 131.914062 154.503906 132.742188 151.757812 130.617188 149.382812 L 130.617188 149.378906 L 130.613281 149.382812 L 130.613281 149.378906 L 130.613281 149.382812 C 126.605469 152.914062 128.179688 157.5625 128.777344 158.121094 L 128.777344 158.125 Z M 126.550781 166.167969 L 126.546875 166.164062 L 126.546875 166.171875 C 126.433594 170.371094 129.515625 170.351562 129.84375 170.957031 L 129.847656 170.957031 C 130.46875 170.878906 130.789062 166.25 126.550781 166.167969 Z M 138.796875 165.320312 C 140.117188 165.289062 141.019531 164.707031 141.203125 164.621094 L 141.203125 164.617188 L 141.207031 164.617188 L 141.203125 164.617188 C 141.117188 164.457031 140.40625 163.566406 139.390625 162.976562 C 138.273438 162.269531 137.527344 162.347656 135.410156 161.882812 L 135.40625 161.882812 L 135.40625 161.886719 C 135.117188 164.320312 137.640625 165.492188 138.796875 165.320312 Z M 135.453125 186.613281 L 135.457031 186.609375 L 135.453125 186.609375 L 135.453125 186.605469 L 135.449219 186.609375 C 135.164062 186.796875 133.980469 187.386719 132.535156 188.007812 C 131.253906 188.660156 128.796875 190.101562 128.46875 193.351562 L 128.464844 193.355469 L 128.46875 193.355469 L 128.46875 193.359375 L 128.46875 193.355469 C 131.339844 192.789062 133.199219 192.039062 134.53125 190.265625 C 135.882812 188.585938 135.542969 186.761719 135.453125 186.613281 Z M 119.34375 166.28125 L 119.339844 166.28125 L 119.34375 166.285156 C 119.960938 170.195312 123.097656 169.914062 123.617188 170.097656 L 123.621094 170.097656 L 123.617188 170.09375 C 123.855469 169.902344 123.628906 165.535156 119.34375 166.28125 Z M 138.316406 180.289062 C 138.9375 184.203125 142.070312 183.917969 142.589844 184.101562 L 142.59375 184.105469 L 142.59375 184.101562 C 142.828125 183.910156 142.605469 179.539062 138.320312 180.289062 L 138.316406 180.285156 Z M 142.695312 197.117188 L 142.695312 197.113281 C 142.476562 196.945312 139.566406 194.523438 137.582031 198.128906 L 137.582031 198.132812 L 137.585938 198.132812 C 140.667969 200.328125 142.503906 197.480469 142.695312 197.117188 Z M 136.554688 128.855469 L 136.558594 128.855469 L 136.558594 128.851562 C 136.824219 128.523438 140.035156 125.679688 137.703125 121.433594 L 137.703125 121.429688 L 137.699219 121.429688 L 137.699219 121.425781 L 137.699219 121.433594 C 134.199219 124.664062 136.285156 128.539062 136.554688 128.851562 Z M 140.703125 134.636719 L 140.699219 134.640625 L 140.703125 134.640625 L 140.703125 134.644531 L 140.703125 134.640625 C 140.875 134.554688 141.996094 134.082031 142.765625 132.757812 C 143.574219 131.523438 143.738281 129.050781 141.847656 127.5 L 141.847656 127.496094 L 141.847656 127.5 L 141.84375 127.5 L 141.84375 127.503906 C 140.765625 129.605469 140.488281 130.746094 140.449219 132.050781 C 140.417969 133.292969 140.640625 134.433594 140.703125 134.636719 Z M 127.15625 131.027344 C 131.542969 135.535156 135.882812 133.058594 136.6875 133.011719 L 136.691406 133.011719 L 136.695312 133.007812 L 136.6875 133.007812 C 136.777344 132.515625 132.625 127.367188 127.15625 131.023438 L 127.152344 131.023438 L 127.152344 131.027344 Z M 118.289062 133.289062 C 120.980469 138.855469 126.769531 137.550781 127.195312 137.152344 L 127.199219 137.152344 L 127.195312 137.152344 L 127.199219 137.148438 L 127.195312 137.148438 C 126.726562 136.757812 124.554688 131.679688 118.289062 133.285156 L 118.285156 133.28125 L 118.285156 133.285156 Z M 137.957031 146.722656 C 139.996094 148.050781 141.203125 148.660156 142.792969 148.824219 C 144.296875 149.003906 145.507812 148.53125 145.675781 148.4375 L 145.679688 148.4375 L 145.675781 148.433594 C 145.519531 148.257812 144.804688 147.335938 143.578125 146.539062 C 142.464844 145.765625 139.964844 145.039062 137.957031 146.71875 L 137.953125 146.722656 Z M 150.148438 156.925781 L 150.144531 156.929688 L 150.148438 156.929688 L 150.148438 156.933594 L 150.148438 156.925781 C 152.070312 155.195312 152.160156 152.816406 151.558594 151.285156 C 150.996094 149.664062 149.738281 148.984375 149.578125 148.933594 L 149.574219 148.929688 L 149.574219 148.933594 C 149.699219 149.714844 148.152344 152.652344 150.148438 156.925781 Z M 175.304688 131.511719 L 175.304688 131.515625 L 175.308594 131.515625 C 175.464844 131.570312 176.875 131.925781 178.433594 131.03125 C 179.992188 130.191406 181.324219 128.363281 181.3125 125.804688 L 181.316406 125.800781 L 181.3125 125.800781 L 181.3125 125.796875 L 181.308594 125.800781 C 176.667969 127.675781 176.019531 131.054688 175.304688 131.511719 Z M 230.5 149.445312 L 230.503906 149.445312 L 230.503906 149.441406 L 230.5 149.441406 C 227.828125 148.996094 226.09375 149.367188 224.683594 149.679688 C 223.316406 150.046875 222.085938 150.273438 221.828125 150.339844 L 221.820312 150.339844 L 221.824219 150.339844 L 221.820312 150.339844 L 221.824219 150.34375 C 221.921875 150.480469 222.757812 151.761719 224.683594 152.097656 C 226.554688 152.484375 229.042969 151.714844 230.5 149.445312 Z M 216.054688 143.859375 L 216.054688 143.855469 L 216.054688 143.859375 C 213.40625 147.578125 216.363281 150.460938 216.652344 150.730469 L 216.652344 150.734375 L 216.65625 150.730469 L 216.65625 150.734375 L 216.65625 150.730469 C 216.894531 150.417969 219.308594 147.066406 216.058594 143.859375 L 216.058594 143.855469 Z M 257.808594 165.621094 L 257.804688 165.621094 C 255.1875 164.023438 252.53125 164.757812 251.109375 166.171875 C 249.621094 167.625 249.683594 169.269531 249.660156 169.492188 L 249.65625 169.496094 L 249.660156 169.496094 L 249.660156 169.5 L 249.664062 169.496094 C 249.945312 169.492188 251.421875 169.257812 252.808594 168.972656 C 254.253906 168.648438 255.847656 168 257.804688 165.625 L 257.808594 165.625 L 257.804688 165.625 Z M 242.125 130.222656 L 242.128906 130.21875 L 242.125 130.21875 C 237.117188 131.914062 238.566406 136.917969 238.691406 137.070312 L 238.691406 137.074219 L 238.695312 137.078125 L 238.695312 137.074219 C 239.234375 136.738281 242.339844 134.714844 242.125 130.222656 Z M 213.746094 162.078125 C 213.957031 162.535156 221.027344 163.886719 223.628906 157.339844 L 223.632812 157.339844 L 223.628906 157.339844 L 223.632812 157.335938 L 223.625 157.339844 C 217.019531 157.136719 214.476562 161.546875 213.746094 162.074219 L 213.738281 162.074219 L 213.742188 162.074219 L 213.742188 162.078125 Z M 227.6875 127.417969 L 227.691406 127.417969 L 227.6875 127.417969 L 227.6875 127.414062 L 227.6875 127.417969 C 223.1875 127.523438 220.78125 130.808594 220.804688 131.597656 L 220.800781 131.601562 L 220.804688 131.597656 L 220.804688 131.601562 L 220.808594 131.597656 C 220.9375 131.324219 226.027344 132.707031 227.6875 127.417969 Z M 222.722656 138.804688 L 222.722656 138.800781 L 222.71875 138.800781 C 218.507812 136.972656 215.246094 140.449219 215.539062 141.191406 L 215.535156 141.191406 L 215.539062 141.191406 L 215.539062 141.195312 L 215.542969 141.191406 C 215.992188 140.738281 219.617188 142.832031 222.722656 138.804688 Z M 205.652344 139.699219 L 205.65625 139.699219 L 205.652344 139.695312 C 205.613281 139.507812 205.027344 138.292969 203.792969 137.394531 C 202.507812 136.382812 201.121094 136.054688 198.773438 135.515625 L 198.769531 135.511719 L 198.769531 135.519531 C 199.023438 138.214844 201.449219 139.359375 202.785156 139.59375 C 204.265625 139.867188 205.40625 139.699219 205.652344 139.699219 Z M 218.054688 123.65625 L 218.054688 123.652344 L 218.050781 123.65625 C 215.941406 125.050781 215.558594 127.496094 216.140625 129.070312 C 216.679688 130.714844 217.902344 131.34375 218.050781 131.421875 L 218.054688 131.425781 L 218.054688 131.417969 C 218.113281 131.183594 218.332031 130.035156 218.542969 128.78125 C 218.722656 127.480469 218.769531 126.039062 218.054688 123.65625 Z M 234.488281 113.144531 C 234.101562 115.542969 235.1875 117.152344 235.320312 117.347656 L 235.320312 117.355469 L 235.324219 117.355469 L 235.324219 117.347656 C 235.710938 116.234375 239.660156 113.941406 240.003906 107.195312 L 240.007812 107.191406 L 240.003906 107.191406 L 240.003906 107.1875 L 240 107.191406 C 236.628906 108.183594 234.820312 110.757812 234.488281 113.144531 Z M 245.585938 128.070312 C 242.535156 124.15625 239.109375 124.71875 238.460938 124.21875 L 238.453125 124.21875 L 238.457031 124.21875 L 238.453125 124.21875 L 238.457031 124.222656 C 238.46875 124.394531 238.578125 125.78125 239.871094 126.96875 C 241.148438 128.175781 243.183594 128.777344 245.585938 128.074219 L 245.589844 128.074219 L 245.585938 128.070312 L 245.589844 128.070312 Z M 245.605469 122.429688 L 245.601562 122.433594 L 245.605469 122.433594 L 245.605469 122.4375 L 245.609375 122.433594 C 246.132812 122.207031 249.632812 124.152344 252.957031 120.539062 L 252.960938 120.539062 L 252.960938 120.535156 L 252.957031 120.539062 C 248.726562 118.277344 245.464844 121.851562 245.605469 122.429688 Z M 243.0625 115.054688 L 243.066406 115.054688 L 243.066406 115.058594 L 243.070312 115.054688 C 243.492188 114.972656 246.824219 116.265625 248.640625 112.476562 L 248.644531 112.476562 L 248.644531 112.472656 L 248.640625 112.472656 C 244.609375 110.765625 242.941406 114.65625 243.066406 115.054688 Z M 232.304688 105.015625 L 232.308594 105.011719 C 232.535156 105.015625 233.707031 104.882812 234.941406 104.449219 C 236.171875 103.988281 237.558594 103.378906 238.96875 101.304688 L 238.976562 101.304688 L 238.972656 101.304688 L 238.972656 101.300781 L 238.96875 101.304688 C 236.730469 100.523438 234.65625 101.261719 233.597656 102.441406 C 232.515625 103.589844 232.347656 104.832031 232.304688 105.011719 L 232.300781 105.015625 L 232.304688 105.011719 Z M 227.128906 110.574219 C 225.96875 110.785156 224.984375 111.300781 224.8125 111.402344 L 224.808594 111.402344 L 224.8125 111.402344 C 224.921875 111.558594 225.574219 112.492188 226.863281 112.980469 C 228.015625 113.46875 230.394531 113.433594 231.476562 111.285156 L 231.480469 111.28125 L 231.480469 111.277344 L 231.476562 111.28125 C 229.414062 110.578125 228.394531 110.316406 227.128906 110.574219 Z M 222.234375 100.113281 L 222.238281 100.117188 L 222.242188 100.117188 L 222.238281 100.113281 C 222.402344 99.445312 224.410156 94.976562 219.925781 91.230469 L 219.925781 91.222656 L 219.925781 91.226562 L 219.921875 91.222656 L 219.925781 91.230469 C 216.800781 96.675781 221.851562 100.054688 222.234375 100.113281 Z M 222.574219 103.617188 L 222.570312 103.617188 L 222.574219 103.621094 L 222.570312 103.621094 L 222.574219 103.621094 C 222.796875 103.976562 227.0625 105.140625 228.472656 100.839844 L 228.472656 100.835938 L 228.46875 100.835938 C 224.226562 99.933594 222.945312 103.335938 222.574219 103.617188 Z M 207.984375 109.34375 L 207.988281 109.34375 L 207.988281 109.339844 C 208.488281 109.09375 210.410156 106.457031 207.824219 104.058594 L 207.824219 104.054688 L 207.824219 104.058594 L 207.824219 104.054688 L 207.824219 104.058594 C 206.058594 105.183594 206.242188 106.996094 206.6875 107.757812 C 207.144531 108.609375 207.851562 109.191406 207.984375 109.339844 Z M 211.246094 110.207031 L 211.242188 110.207031 L 211.246094 110.207031 L 211.246094 110.210938 L 211.246094 110.207031 C 211.539062 110.324219 216.113281 111.726562 218.316406 107.144531 L 218.320312 107.144531 L 218.320312 107.140625 L 218.316406 107.144531 C 213.707031 106.324219 211.515625 109.761719 211.246094 110.207031 Z M 207.667969 93.359375 L 207.667969 93.355469 L 207.667969 93.359375 L 207.667969 93.355469 L 207.667969 93.359375 C 206.152344 94.664062 206.300781 96.554688 207.199219 97.4375 C 207.980469 98.429688 209.183594 98.425781 209.261719 98.421875 L 209.261719 98.425781 L 209.261719 98.421875 L 209.265625 98.421875 L 209.261719 98.421875 C 209.308594 98.175781 209.355469 97.289062 209.398438 96.429688 C 209.316406 95.5625 209.148438 94.785156 207.667969 93.359375 Z M 211.519531 98.492188 L 211.523438 98.492188 C 211.9375 98.425781 215.257812 99.332031 216.371094 95.46875 L 216.371094 95.464844 L 216.367188 95.464844 C 212.316406 94.191406 211.390625 98.152344 211.519531 98.488281 Z M 212.316406 93.601562 L 212.320312 93.597656 L 212.320312 93.601562 L 212.320312 93.597656 C 212.824219 93.203125 216.40625 91.761719 216.90625 86.925781 L 216.910156 86.921875 L 216.90625 86.921875 L 216.90625 86.917969 L 216.902344 86.921875 C 211.742188 88.089844 212.078125 93.378906 212.316406 93.597656 Z M 206.089844 91.597656 L 206.089844 91.601562 L 206.089844 91.597656 L 206.09375 91.597656 C 206.003906 90.675781 209.917969 89.195312 207.632812 84.085938 L 207.632812 84.082031 L 207.628906 84.085938 L 207.628906 84.082031 L 207.628906 84.085938 C 202.519531 86.289062 205.121094 91.886719 206.089844 91.597656 Z M 191.136719 93.121094 C 192.84375 96.820312 195.421875 94.933594 195.882812 95.316406 L 195.886719 95.320312 L 195.886719 95.316406 C 196.410156 94.859375 194.492188 91.054688 191.136719 93.117188 Z M 194.011719 89.210938 L 194.015625 89.214844 L 194.015625 89.210938 C 193.914062 88.394531 197.789062 86.234375 194.160156 81.863281 L 194.160156 81.859375 L 194.15625 81.859375 L 194.15625 81.863281 C 189.46875 84.882812 193.199219 89.53125 194.011719 89.210938 Z M 169.011719 96.519531 C 170.488281 98.988281 173.160156 99.429688 174.714844 99.394531 C 176.375 99.328125 177.554688 99.042969 177.835938 99.019531 L 177.839844 99.019531 L 177.84375 99.015625 L 177.835938 99.015625 C 177.765625 98.832031 176.832031 97.636719 175.175781 97.023438 C 173.472656 96.320312 171.660156 96.246094 169.011719 96.519531 L 169.007812 96.515625 L 169.007812 96.519531 Z M 177.230469 93.851562 L 177.234375 93.855469 L 177.234375 93.851562 L 177.238281 93.851562 L 177.234375 93.847656 C 176.777344 93.261719 178.101562 87.894531 173.816406 82.847656 L 173.816406 82.839844 L 173.8125 82.84375 L 173.8125 82.839844 L 173.8125 82.847656 C 171.347656 89.347656 176.414062 94.085938 177.230469 93.851562 Z M 129.84375 115.023438 L 129.847656 115.019531 L 129.847656 115.015625 L 129.851562 115.019531 C 135.332031 113.390625 137.929688 116.464844 138.082031 116.945312 L 138.085938 116.945312 L 138.082031 116.945312 L 138.082031 116.949219 L 138.078125 116.949219 C 137.675781 117 132.28125 119.308594 129.847656 115.023438 L 129.84375 115.023438 " fill-opacity="1" fill-rule="nonzero"/></g><g fill="#e0d9c8" fill-opacity="1"><g transform="translate(144.780712, 257.325511)"><g><path d="M 2.328125 -3.148438 L 3.890625 -7.089844 L 5.441406 -3.148438 Z M 7.644531 0 L 3.890625 -9.15625 L 0.125 0 L 1.082031 0 L 2.003906 -2.328125 L 5.765625 -2.328125 L 6.6875 0 Z M 7.644531 0 "/></g></g></g><g fill="#e0d9c8" fill-opacity="1"><g transform="translate(157.271046, 257.325511)"><g><path d="M 1.824219 -6.308594 L 6.636719 0.527344 L 6.636719 -8.5625 L 5.753906 -8.5625 L 5.753906 -2.265625 L 0.945312 -9.105469 L 0.945312 0 L 1.824219 0 Z M 1.824219 -6.308594 "/></g></g></g><g fill="#e0d9c8" fill-opacity="1"><g transform="translate(169.572587, 257.325511)"><g><path d="M 4.257812 -4.03125 L 7.492188 -8.5625 L 6.371094 -8.5625 L 3.816406 -4.898438 L 1.257812 -8.5625 L 0.125 -8.5625 L 3.375 -4.015625 L 3.375 0 L 4.257812 0 Z M 4.257812 -4.03125 "/></g></g></g><g fill="#e0d9c8" fill-opacity="1"><g transform="translate(181.911895, 257.325511)"><g><path d="M 0.25 -7.769531 L 2.328125 -7.769531 L 2.328125 -0.0234375 L 3.210938 -0.0234375 L 3.210938 -7.769531 L 5.289062 -7.769531 L 5.289062 -8.589844 L 0.25 -8.589844 Z M 0.25 -7.769531 "/></g></g></g><g fill="#e0d9c8" fill-opacity="1"><g transform="translate(192.17451, 257.325511)"><g><path d="M 1.824219 0 L 1.824219 -3.828125 L 5.71875 -3.828125 L 5.71875 0 L 6.597656 0 L 6.597656 -8.5625 L 5.71875 -8.5625 L 5.71875 -4.710938 L 1.824219 -4.710938 L 1.824219 -8.5625 L 0.945312 -8.5625 L 0.945312 0 Z M 1.824219 0 "/></g></g></g><g fill="#e0d9c8" fill-opacity="1"><g transform="translate(204.438295, 257.325511)"><g><path d="M 1.824219 0 L 1.824219 -8.5625 L 0.945312 -8.5625 L 0.945312 0 Z M 1.824219 0 "/></g></g></g><g fill="#e0d9c8" fill-opacity="1"><g transform="translate(211.931989, 257.325511)"><g><path d="M 1.824219 -6.308594 L 6.636719 0.527344 L 6.636719 -8.5625 L 5.753906 -8.5625 L 5.753906 -2.265625 L 0.945312 -9.105469 L 0.945312 0 L 1.824219 0 Z M 1.824219 -6.308594 "/></g></g></g><g fill="#e0d9c8" fill-opacity="1"><g transform="translate(224.233528, 257.325511)"><g><path d="M 1.824219 0 L 1.824219 -4.015625 L 4.710938 0 L 5.84375 0 L 2.695312 -4.28125 L 5.84375 -8.5625 L 4.710938 -8.5625 L 1.824219 -4.535156 L 1.824219 -8.5625 L 0.945312 -8.5625 L 0.945312 0 Z M 1.824219 0 "/></g></g></g></svg>